# xmcd CD database file
#
# Track frame offsets:
#	150
#	22062
#	43257
#	64395
#	84075
#	106742
#	131190
#	149807
#	173407
#	200597
#	220902
#	245810
#	268320
#
# Disc length: 3798 seconds
#
# Revision: 2
# Processed by: cddbd v1.4PL0 Copyright (c) Steve Scherf et al.
# Submitted via: CDex 1.50Beta7
#
DISCID=ce0ed40d
DTITLE=Dave Specter - Speculatin'
DYEAR=2000
DGENRE=Blues
TTITLE0=At Whit's End
TTITLE1=Blues A-La-King
TTITLE2=Texas Top
TTITLE3=The Mighty Burner
TTITLE4=Birk's Works
TTITLE5=Look-Ka Py Py
TTITLE6=The Haleiwa Shuffle
TTITLE7=Blues For Magic Sam
TTITLE8=Hot Cha'
TTITLE9=Jade's Dance
TTITLE10=Minor Side Down
TTITLE11=Speculatin'
TTITLE12=Dark Hour Blues
EXTD=Dave Specter\nRob Waters\nHarlan Terson\nMike Schlick\nRich Parenti\nKen Saydak\nJose Rendon YEAR: 2000
EXTT0=
EXTT1=
EXTT2=
EXTT3=
EXTT4=
EXTT5=
EXTT6=
EXTT7=
EXTT8=
EXTT9=
EXTT10=
EXTT11=
EXTT12=
PLAYORDER=
